<svg width="96" height="96" viewBox="0 0 96 96" fill="none" xmlns="http://www.w3.org/2000/svg" class="TridactylThemeQuakelight">
<path d="M47.66 88.8323L48.361 89.2047L49.0632 88.8346L62.1838 81.919L64.6932 80.5963L62.1874 79.2669L50.7181 73.1824L59.9214 68.3254L73.1754 75.366L73.8764 75.7383L74.5785 75.3682L87.6992 68.4527L90.2067 67.131L87.7035 65.801L49.3397 45.4191L48.6379 45.0463L47.9353 45.4175L34.8146 52.3497L32.3107 53.6726L34.8119 55.0007L47.08 61.5154L37.8952 66.3574L23.8241 58.8853L23.1232 58.5131L22.4212 58.8831L9.30059 65.7987L6.793 67.1204L9.29624 68.4504L47.66 88.8323Z" fill="black" stroke="white" stroke-width="3" stroke-miterlimit="10"/>
<path d="M48.3638 46.9638L10 26.5819L23.1206 19.6663L37.8927 27.5106L50.2874 20.9764L35.5154 13.1321L48.636 6.19995L86.9997 26.5819L73.8791 33.4975L59.9237 26.0843L47.5108 32.6351L61.4844 40.0482L48.3638 46.9638Z" fill="url(#paint0_linear_1897_53936)"/>
<defs>
<linearGradient id="paint0_linear_1897_53936" x1="85.5557" y1="28.1665" x2="29.0056" y2="58.6412" gradientUnits="userSpaceOnUse">
<stop offset="0.234375" stop-color="#AA31FF"/>
<stop offset="0.385417" stop-color="#326BFF"/>
<stop offset="0.833333" stop-color="#01FFFF"/>
</linearGradient>
</defs>
</svg>